<?xml version="1.0" encoding="utf-8"?>
<!DOCTYPE svg PUBLIC "-//W3C//DTD SVG 1.1//EN" "http://www.w3.org/Graphics/SVG/1.1/DTD/svg11.dtd">
<svg version="1.1" xmlns="http://www.w3.org/2000/svg" width="33" height="32">
<path fill-rule="evenodd" clip-rule="evenodd" fill="#1e64c8" d="M16.04,0c-8.83,0-16,7.16-16,16c0,7.07,4.58,13.06,10.94,15.18
	c0.8,0.15,1.09-0.35,1.09-0.77c0-0.38-0.01-1.39-0.02-2.72c-4.45,0.97-5.39-2.14-5.39-2.14c-0.73-1.85-1.78-2.34-1.78-2.34
	C3.43,22.21,5,22.23,5,22.23c1.61,0.11,2.45,1.65,2.45,1.65c1.43,2.45,3.75,1.74,4.66,1.33c0.15-1.04,0.56-1.74,1.02-2.14
	c-3.55-0.4-7.29-1.78-7.29-7.91c0-1.75,0.62-3.17,1.65-4.29c-0.16-0.4-0.71-2.03,0.16-4.23c0,0,1.34-0.43,4.4,1.64
	c1.28-0.35,2.65-0.53,4.01-0.54c1.36,0.01,2.73,0.18,4.01,0.54c3.05-2.07,4.39-1.64,4.39-1.64c0.87,2.2,0.33,3.83,0.16,4.23
	c1.03,1.12,1.64,2.55,1.64,4.29c0,6.15-3.74,7.5-7.31,7.9c0.58,0.49,1.09,1.47,1.09,2.96c0,2.14-0.02,3.87-0.02,4.39
	c0,0.43,0.29,0.93,1.1,0.77c6.35-2.12,10.93-8.11,10.93-15.18C32.04,7.16,24.88,0,16.04,0z"/>
</svg>
