<?xml version="1.0" encoding="utf-8"?>
<!DOCTYPE svg PUBLIC "-//W3C//DTD SVG 1.1//EN" "http://www.w3.org/Graphics/SVG/1.1/DTD/svg11.dtd">
<svg version="1.1" xmlns="http://www.w3.org/2000/svg" width="106.3px" height="85.04px">
<rect fill="none" width="106.3" height="85.04"/>
<g>
	<g>
		<rect x="31.27" y="24.45" fill="#1E64C8" width="1.25" height="8.1"/>
		<rect x="28.77" y="24.45" fill="#1E64C8" width="1.25" height="8.1"/>
		<rect x="26.28" y="24.45" fill="#1E64C8" width="1.25" height="8.1"/>
		<rect x="23.78" y="24.45" fill="#1E64C8" width="1.25" height="8.1"/>
		<rect x="33.76" y="24.45" fill="#1E64C8" width="1.25" height="8.1"/>
		<rect x="36.25" y="24.45" fill="#1E64C8" width="1.25" height="8.1"/>
		<rect x="38.75" y="24.45" fill="#1E64C8" width="1.25" height="8.1"/>
		<rect x="22.51" y="33.79" fill="#1E64C8" width="18.77" height="1.25"/>
		<polygon fill="#1E64C8" points="40,23.2 23.78,23.2 22.54,21.95 41.24,21.95 			"/>
		<rect x="21.26" y="36.28" fill="#1E64C8" width="21.26" height="1.25"/>
	</g>
</g>
<polygon fill="#1E64C8" points="42.52,19.94 31.89,16.17 21.26,19.94 21.26,21.26 31.89,17.5 42.52,21.26 	"/>
<path fill="#1E64C8" d="M58.91,43.42c0.55,0,1.07,0.18,1.31,0.37v-1.12c-0.24-0.15-0.82-0.31-1.42-0.31
	c-1.66,0-2.57,0.94-2.57,2.31c0,1.14,0.48,1.69,1.26,2.36l0.71,0.61c0.59,0.49,0.95,0.87,0.95,1.6c0,0.86-0.57,1.2-1.42,1.2
	c-0.64,0-1.18-0.18-1.49-0.39v1.14c0.27,0.16,0.84,0.32,1.6,0.32c1.65,0,2.56-0.94,2.56-2.31c0-1.14-0.48-1.69-1.26-2.35
	l-0.71-0.61c-0.59-0.5-0.95-0.87-0.95-1.6C57.49,43.76,58.06,43.43,58.91,43.42z"/>
<path fill="#1E64C8" d="M21.26,48.68v-6.16h1.25v6.21c0,1.3,0.45,1.68,1.36,1.68s1.36-0.38,1.36-1.68v-6.21h1.25v6.16
	c0,2.01-0.84,2.82-2.6,2.82C22.07,51.5,21.26,50.71,21.26,48.68z"/>
<path fill="#1E64C8" d="M28.08,42.52h1.44l2.78,7.03c-0.09-0.72-0.18-1.56-0.18-2.35v-4.68h1.19v8.82h-1.44l-2.81-7.05
	c0.11,0.72,0.2,1.57,0.2,2.38v4.68h-1.19V42.52z"/>
<path fill="#1E64C8" d="M35.09,42.52h1.25v8.82h-1.25V42.52z"/>
<path fill="#1E64C8" d="M37.49,42.52h1.3l1.11,4.59c0.16,0.69,0.37,1.86,0.49,2.78c0.12-0.92,0.33-2.09,0.52-2.78l1.1-4.59h1.26
	l-2.24,8.82h-1.3L37.49,42.52z"/>
<path fill="#1E64C8" d="M44.43,42.52h4.12v1.06h-2.88v2.7H48v1.04h-2.32v2.96h2.88v1.06h-4.12V42.52z"/>
<path fill="#1E64C8" d="M50,42.52h2.04c1.63,0,2.79,0.61,2.79,2.61c0,1.4-0.68,2.07-1.53,2.39l1.87,3.83h-1.42l-1.66-3.6h-0.84v3.6
	H50V42.52z M51.25,43.58v3.11h0.67c0.98,0,1.63-0.21,1.63-1.56c0-1.34-0.65-1.55-1.63-1.55H51.25z"/>
<path fill="#1E64C8" d="M61.89,42.52h1.25v8.82h-1.25V42.52z"/>
<path fill="#1E64C8" d="M64.32,42.52h5.06v1.06h-1.91v7.76h-1.25v-7.76h-1.9V42.52z"/>
<path fill="#1E64C8" d="M70.53,42.52h4.12v1.06h-2.88v2.7h2.32v1.04h-2.32v2.96h2.88v1.06h-4.12V42.52z"/>
<path fill="#1E64C8" d="M76.08,42.52h1.25v8.82h-1.25V42.52z"/>
<path fill="#1E64C8" d="M78.47,42.52h5.06v1.06h-1.91v7.76h-1.25v-7.76h-1.9V42.52z"/>
<path fill="#1E64C8" d="M20.99,59.37c0-3.47,0.92-4.57,3.21-4.57c0.65,0,1.34,0.18,1.64,0.35v1.15c-0.33-0.19-0.95-0.39-1.55-0.39
	c-1.46,0-2.02,0.54-2.02,3.46c0,2.89,0.39,3.49,1.67,3.49c0.39,0,0.72-0.05,0.96-0.12v-2.94h-1.3v-1.06h2.55v4.76
	c-0.26,0.16-1.29,0.45-2.2,0.45C21.57,63.94,20.99,62.69,20.99,59.37z"/>
<path fill="#1E64C8" d="M27.65,54.96h4.12v1.06h-2.88v2.7h2.32v1.04h-2.32v2.96h2.88v1.06h-4.12V54.96z"/>
<path fill="#1E64C8" d="M33.21,54.96h1.44l2.78,7.03c-0.09-0.72-0.18-1.56-0.18-2.35v-4.68h1.19v8.82h-1.44l-2.81-7.05
	c0.11,0.72,0.2,1.57,0.2,2.37v4.68h-1.19V54.96z"/>
<path fill="#1E64C8" d="M39.59,54.96h5.06v1.06h-1.91v7.76h-1.25v-7.76h-1.9V54.96z"/>
</svg>
